<?xml version='1.0' encoding='iso-8859-1'?>
<!DOCTYPE svg PUBLIC '-//W3C//DTD SVG 1.1//EN' 'http://www.w3.org/Graphics/SVG/1.1/DTD/svg11.dtd'>
<svg version="1.1" xmlns="http://www.w3.org/2000/svg" viewBox="0 0 512 512" xmlns:xlink="http://www.w3.org/1999/xlink" enable-background="new 0 0 512 512">
  <g>
    <path d="M510.314,216.844l-64-128c-2.711-5.422-8.25-8.843-14.313-8.843H368V31.999C368,23.163,360.836,16,352,16H159.999   c-8.836,0-16,7.163-16,15.999V80H79.999c-6.063,0-11.602,3.421-14.313,8.843l-64,128c-2.477,4.961-2.211,10.852,0.703,15.57   C5.303,237.125,10.452,240,15.999,240H48v240.001C48,488.837,55.163,496,63.999,496H272h112h64c8.836,0,15.999-7.163,15.999-15.999   V240h32.001c5.547,0,10.695-2.875,13.609-7.586C512.525,227.695,512.79,221.804,510.314,216.844z M176,48h160v32H176V48z    M307.506,112l24,96H180.494l24-96H307.506z M89.89,112h70.11h11.506l-24,96H63.999H41.89L89.89,112z M288,464V320h80v144H288z    M432,464h-32V304c0-8.836-7.163-16-15.999-16H272c-8.836,0-16,7.164-16,16v160H80V240h352V464z M448.001,208h-83.506l-24-96H352   h70.11l48,96H448.001z"/>
    <path d="m224,304c0-8.837-7.163-16-16-16h-80c-8.837,0-16,7.163-16,16v96c0,8.837 7.163,16 16,16h80c8.837,0 16-7.164 16-16v-96zm-32,80h-48v-64h48v64z"/>
  </g>
</svg>
